<?xml version="1.0" encoding="UTF-8"?>
<!DOCTYPE svg PUBLIC "-//W3C//DTD SVG 1.1//EN" "http://www.w3.org/Graphics/SVG/1.1/DTD/svg11.dtd">
<!-- Creator: CorelDRAW -->
<svg xmlns="http://www.w3.org/2000/svg" xml:space="preserve" width="177.619mm" height="156.291mm" version="1.1" style="shape-rendering:geometricPrecision; text-rendering:geometricPrecision; image-rendering:optimizeQuality; fill-rule:evenodd; clip-rule:evenodd"
viewBox="0 0 18547.04 16319.97"
 xmlns:xlink="http://www.w3.org/1999/xlink"
 xmlns:xodm="http://www.corel.com/coreldraw/odm/2003">
 <defs>
  <style type="text/css">
   <![CDATA[
    .fil1 {fill:black}
    .fil0 {fill:black;fill-rule:nonzero}
   ]]>
  </style>
 </defs>
 <g id="Layer_x0020_1">
  <metadata id="CorelCorpID_0Corel-Layer"/>
  <g id="_2176397984048">
   <path class="fil0" d="M7346.44 4313.19c-16.79,-21.24 -13.27,-52.24 7.1,-69.02 21.24,-16.78 52.24,-13.27 69.02,7.11 86.75,107.98 256.64,123.05 359.32,11.48 44.27,-48.64 116.8,18.58 72.53,66.36 -135.38,149.6 -377.9,145.16 -507.97,-15.92z"/>
   <path class="fil0" d="M8056 3633.42c-5.3,-123.91 51.3,-227.44 127.42,-230.96 76.13,-3.51 141.65,93.86 146.95,218.63 5.3,123.06 -50.44,227.45 -127.42,230.96 -75.18,2.65 -141.64,-95.57 -146.95,-218.63z"/>
   <path class="fil0" d="M7028.48 3374.21c76.12,-3.51 141.64,93.85 147.81,218.63 5.3,123.06 -51.3,227.45 -127.42,230.96 -75.19,3.51 -141.65,-94.71 -146.95,-218.63 -6.17,-124.77 51.29,-227.45 126.57,-230.96z"/>
   <path class="fil0" d="M5193.93 3518.59c-150.46,-91.2 -169.05,-303.57 -37.16,-420.38 48.64,-43.33 114.15,30.99 65.5,73.47 -81.44,72.53 -70.82,205.35 23.05,261.96 23.04,14.13 30.99,44.26 16.78,67.22 -15.07,23.89 -45.13,31.86 -68.17,17.73z"/>
   <path class="fil0" d="M8072.1 3150.1c-61.91,19.44 -91.2,-74.33 -29.2,-93.85 160.21,-50.44 335.42,-48.64 495.64,3.51 25.7,8.82 39.83,36.32 31,61.92 -8.82,26.54 -37.16,39.82 -61.91,30.99 -140.7,-45.12 -294.76,-46.93 -435.45,-2.65l-0.08 0.08z"/>
   <path class="fil0" d="M7245.3 3162.61c-180.51,-45.13 -375.25,-31 -546.94,38.96 -61.05,23.89 -97.36,-66.37 -37.16,-91.2 192.08,-77.93 407.1,-92.91 608,-42.47 61.92,14.13 42.48,108.84 -23.89,94.71z"/>
   <path class="fil0" d="M7787.97 4760.2c17.72,53.94 14.13,111.49 -16.79,159.27 -50.44,76.13 -158.43,135.39 -223.93,142.5 -63.72,6.16 -187.62,-30.06 -231.9,-93.86 -38.97,-55.74 -32.71,-149.6 0.86,-207.06l11.48 -28.35c134.53,87.61 315.99,98.23 460.19,27.4l0.09 0.09z"/>
   <path class="fil0" d="M12862.82 2806.88c15.07,22.1 9.76,53.1 -12.42,68.17 -878.01,597.39 -830.23,577.95 -858.48,577.95 -47.78,0 -68.17,-62.85 -27.4,-90.26l831.07 -569.12c21.24,-15.07 51.3,-8.82 67.23,13.27z"/>
   <path class="fil0" d="M11860.91 2916.58c-10.62,-24.75 0,-53.95 24.75,-64.57l579.74 -257.58c60.2,-26.54 99.16,63.71 39.82,90.26l-579.74 257.58c-24.75,9.76 -53.95,-0.86 -64.56,-25.69z"/>
   <path class="fil0" d="M14810.91 4282.36c0,-215.97 175.21,-392.12 390.32,-392.12 215.97,0 392.12,176.15 392.12,392.12 0,215.96 -176.15,392.12 -392.12,392.12 -215.97,0 -390.32,-176.16 -390.32,-392.12zm683.19 0c0,-161.94 -131.87,-292.96 -292.95,-292.96 -161.08,0 -291.16,131.88 -291.16,292.96 0,161.94 131.02,293.81 291.16,293.81 161.08,-0.86 292.95,-131.87 292.95,-293.81z"/>
   <path class="fil0" d="M15337.39 12304.4c162.88,138.98 182.32,381.5 42.48,543.44 -127.42,151.32 -365.58,190.28 -543.44,42.48 -160.22,-138.98 -179.66,-381.5 -42.48,-543.44 137.19,-159.28 383.21,-178.81 543.44,-42.48z"/>
   <path class="fil1" d="M3828.32 15973.31l110.99 6.77c158.68,-259.21 295.78,-454.63 384.5,-603.63 210.66,41.54 451.38,74.34 455.83,75.19 1.8,12.32 0,25.6 1.8,38.02 8.82,61.14 107.99,59.34 97.37,-24.75 455.83,57.55 897.44,91.2 1401.92,96.51l2.65 37.16c2.65,25.6 23.89,45.99 49.58,45.99 21.24,-1.71 1447.13,-101.74 1477.2,-103.53 20.37,-1.8 33.64,-17.72 39.82,-36.31 324.81,-46.93 218.63,-32.8 257.58,-38.96 396.49,322.15 798.29,520.4 1260.28,660.24l13.78 187.87 99.08 6.09 -12.25 -165.88c396.57,107.99 783.29,144.3 1141.76,123.06 2057.88,109.87 3627.04,-1398.32 3856.28,-3186.1l206.13 0.17c272.65,232.75 681.56,193.88 912.51,-74.33 131.88,-154.92 183.17,-361.13 140.71,-556.71l1318.76 -1540.9 385.88 -131.03c207.91,63.8 643.37,-509.78 769.08,-684.99 179.66,-250.47 457.54,-689.44 301.78,-804.53l-882.37 -806.24c-24.84,-23.05 -64.66,-14.14 -77.93,15.92l-159.28 344.24 -211.51 -176.15c-26.54,-22.1 -68.17,-10.62 -78.79,23.89l-112.44 378.85c-14.13,48.64 41.62,67.23 94.72,122.12 -19.53,19.43 -15.08,47.78 -68.17,291.16l-3198.53 993.86c-659.3,-912.52 -1676.2,-1451.5 -2755.11,-1512.55 -202.7,-339.03 -352.3,-693.04 -538.13,-1070.95 -60.11,-872.61 -762.92,-1548.78 -1172.67,-2249.78 -527.5,-901.81 -561.07,-1870.08 -573.49,-2865.75 62.85,5.32 126.57,12.43 189.42,15.08 43.33,1.71 -56.69,-798.37 -70.82,-859.42 -215.97,-960.3 -958.51,-1652.4 -1836.51,-1855.95 -281.49,-65.51 -781.5,-120.41 -1118.73,-62.86 -469.1,80.5 -886.82,382.36 -1155.04,776.19 -226.58,332.78 -324.81,685.07 -364.63,1057.67 -194.73,788.61 -146.01,1649.75 -269.92,2463.1 -152.17,994.8 -577.95,1946.3 -1217.81,2720.68 -297.33,358.47 -637.21,685.94 -916.89,1055.87 -202.7,232.75 -293.81,348.7 -449.58,548.75 -149.6,192.93 -318.64,384.07 -429.28,605.35 -20.3,39.82 -69.88,100.96 -72.53,160.22 -0.86,41.53 41.62,53.94 88.55,75.18l-1050.57 1533.79c-118.6,172.64 -120.4,387.67 -26.54,561.17l118.6 216.83c84.09,152.26 229.24,253.13 399.14,277.02l3525.31 482.38c27.48,193.88 72.61,770.89 192.07,1501.94 30.92,151.32 48.64,278.82 48.64,403.59 -9.67,1.81 -20.29,4.46 -27.4,12.43 -205.35,218.61 -251.42,495.64 -138.98,847.01 5.3,15.92 18.59,28.26 35.37,32.7l11.48 -47.78 -9.76 45.99c-84.6,142.16 -226.59,343.73 -392.89,619.05zm3491.48 214.18l202.27 12.42 -94.28 -46.41c-2.66,-1.8 -4.46,-2.65 -7.11,-4.45 -1.8,-1.81 -2.65,-3.6 -4.46,-4.46 -16.86,-8.91 -37.16,-6.24 -52.23,6.17l-44.19 36.74zm2057.62 -1181.93c-1.8,16.78 -11.48,31.86 -27.4,38.96l-2.65 1.81 7.97 34.51c218.61,134.53 442.56,235.41 737.22,315.99 7.97,0 23.04,4.45 30.06,6.16l501.81 -717.78c-40.68,-26.55 -7.11,37.16 -156.63,-1338.21 -225.64,-113.3 -383.21,-322.16 -429.28,-569.12l-784.06 0c-7.97,720.44 -12.42,986.85 -24.75,1425.81 208.86,206.21 177,515.94 147.81,801.88l-0.09 0zm1457.75 -2853.42l13.27 0c-75.18,-67.23 -153.97,-137.19 -233.61,-208.86 -282.33,92.91 -494.7,354.87 -494.7,679.77 0,665.55 824.83,965.61 1259.42,469.1l-544.38 -0.08c-259.3,0 -467.3,-216.83 -467.3,-469.1 0.86,-260.16 209.72,-470.82 467.3,-470.82zm-2674.79 -573.58l43.33 11.48c22.1,6.17 37.16,26.55 36.31,49.59l-7.97 219.48 -7.96 104.47c-1.81,23.04 -20.38,38.02 -42.48,41.61l574.44 320.36c5.3,-22.1 22.08,-39.83 45.13,-39.83l369.07 0c71.68,-1073.59 482.38,-1449.7 556.71,-2315.37 -700.06,284.98 -1279.8,869.95 -1566.59,1608.12l0 0.08zm893.93 -1336.41c-73.47,-182.31 -192.93,-350.5 -336.29,-485.89 -43.32,33.65 -126.56,92.06 -255.79,208.86 -369.07,302.72 -805.39,916.89 -990.36,1491.32 19.18,3.26 554.57,95.57 588.57,101.74 169.04,-443.33 448.72,-853.95 817.8,-1174.39 70.82,-61.07 114.15,-92.91 176.16,-141.65l-0.09 0zm990.37 2197.64c4.45,-18.59 7.1,-37.16 12.42,-54.89l-1205.47 0 0 295.61 1171.82 0c-6.17,-87.61 2.65,-161.08 21.24,-240.72zm52.23 -154.06c87.61,-189.42 245.17,-337.23 437.25,-415.06 -213.31,-192.08 -422.17,-380.56 -585.05,-531.02 -45.99,9.76 -118.61,23.04 -161.94,5.3 -24.75,-7.96 -38.03,-25.69 -48.64,-39.82 -62.86,-69.88 -127.42,-146.95 -193.79,-227.45 -153.11,438.96 -241.66,727.55 -274.38,1207.19l826.54 0.86zm-1294.78 493c-15.93,0 -28.35,-8.82 -37.16,-20.38l-719.59 546.94c111.5,423.04 285.85,788.61 559.37,1126.69 220.34,-75.18 366.42,-139.84 524.85,-222.13 0.86,-24.75 14.13,-293.81 24.75,-1430.26l-352.21 -0.86zm780.55 -1808.17c79.64,99.17 154.91,187.62 230.96,272.57 0,0 7.96,10.62 7.96,10.62 8.82,3.52 48.64,5.32 129.23,-13.27 123.05,-35.37 408.9,-80.58 761.11,-286.79 293.81,-169.89 531.96,-399.14 687.72,-662.04 28.35,-49.58 54.89,-99.16 84.1,-153.11 25.69,-46.93 56.61,-95.57 91.2,-145.14 -290.3,-123.92 -565.53,-212.38 -939.06,-239.01 -288.5,19.44 -549.61,79.64 -803.68,175.21 -24.75,374.39 -125.71,693.04 -249.62,1040.8l0.08 0.17zm1951.6 -718.64c-15.92,29.21 -32.7,59.26 -50.44,89.4 -164.59,277.88 -414.22,518.69 -723.09,697.4 -225.65,131.87 -481.44,226.59 -696.55,275.23 164.59,150.46 367.28,334.57 573.49,519.53 337.23,-84.95 673.51,51.3 863.79,319.51l1570.97 0 169.89 -57.55c-87.6,-424.84 -230.95,-796.57 -507.97,-1171.82l-513.3 159.28c-19.43,6.16 -40.67,-0.86 -53.94,-16.79l-632.84 -814.21zm-804.45 1662.17c197.3,176.06 214.08,191.05 266.32,237.97l382.36 0.08c-154.92,-178.8 -394.69,-275.23 -648.68,-238.06zm-1549.81 2380.72c-138.04,71.67 -324.81,154.91 -506.26,217.68 174.35,198.24 357.52,354.87 552.25,484.09 7.97,-3.51 41.62,-20.38 55.75,-27.4 23.89,-223.94 52.23,-499.93 -101.74,-674.37 0,0 -0.08,-0.09 -0.08,-0.09l0.08 0.09zm-1303.69 -1370.07c-1.8,1.81 -19.44,8.82 -19.44,8.82 -8.81,2.65 -18.58,2.65 -28.34,-0.86l-269.92 -96.51c233.61,210.66 265.54,212.37 264.6,253.99 0,14.13 -6.16,28.34 -17.72,37.16 -202.7,166.38 -197.39,177.86 -229.24,179.66 -0.86,0 -1.8,0.86 -3.51,0.86 -20.38,0 -71.67,-14.13 -239.86,-49.58 200.04,962.96 691.24,1769.2 1532.94,2330.28 162.88,-116.8 298.27,-271.72 396.49,-449.58 -843.49,-533.67 -1298.39,-1370.06 -1385.99,-2214.42l0 0.17zm-1301.04 2308.36c-71.68,-17.73 -148.66,-11.48 -217.69,12.42l15.07 218.63c493,0.86 924,5.3 1379.82,-45.13l-22.08 -311.54c-94.72,-102.68 -184.97,-208.86 -268.21,-323.01l-0.94 -0.08c-508.93,58.4 -842.56,44.27 -1133.72,44.27l22.1 315.05c80.58,-23.04 167.25,-26.54 248.69,-7.11 26.54,6.17 42.47,32.71 36.31,59.26 -6.17,27.41 -33.65,43.33 -59.26,37.17l-0.08 0.08zm1261.21 -12.42l13.28 185.83c101.81,-13.27 38.96,-3.52 163.73,-23.89 -61.07,-53.1 -120.41,-106.2 -177.01,-161.94zm-1562.99 242.52l-45.13 -638.15c-459.35,-19.44 -874.42,-71.68 -1203.68,-126.57 -109.79,203.55 -161.94,436.3 -151.32,667.34 350.5,45.13 836.39,91.2 1400.12,97.37zm-2003.76 -196.45c76.99,15.92 285.84,53.94 505.42,84.95 -7.97,-231.9 43.32,-464.65 148.65,-670.86 -97.36,-17.72 -457.54,-87.6 -547.88,-114.15 -160.22,182.32 -193.79,406.26 -106.19,700.07zm130.08 -1223.2c29.21,141.64 55.75,292.95 53.1,440.76 127.42,30.06 315.99,69.02 518.68,104.47 4.46,-7.1 7.11,-15.07 11.48,-21.24 27.41,-43.32 100.88,-22.08 85.9,38.03 347.85,56.6 791.26,109.78 1278,124.76l1027.53 -71.67c-302.73,-454.03 -502.76,-973.58 -580.6,-1515.21l-127.42 -28.35 -85.9 -23.89 -751.44 -296.46 -1615.23 -221.29c12.42,100.02 77.93,806.25 185.83,1470.09l0.08 0zm-4224.51 -2966.71c-94.71,138.04 -98.22,316 -21.23,458.49l117.74 216.83c69.02,124.76 187.62,208.01 325.67,227.44 5096.09,698.26 -677.12,-92.91 5253.83,719.58l757.61 297.41c158.42,35.37 649.62,146.95 673.51,151.32l276.17 58.4 138.98 -116.8 -401.8 -350.5c-40.67,-35.37 -2.65,-101.82 48.64,-83.24l482.38 173.49 45.13 -46.93c1.8,-2.65 3.51,-6.16 6.16,-8.81l45.13 -49.59c0.86,-0.86 0.86,-0.86 1.8,-1.8l4.46 -4.45c-15.85,-20.3 -287.91,-369.43 -274.54,-352.47 0,0 0,0 0,0 0,0 0,0 0,0 -32.37,-41.62 15.32,-97.88 61.22,-74.08 36.31,18.59 312.4,161.08 292.95,150.46l98.23 -286.79c-19.61,-9.42 -347.07,-170.24 -351.53,-172.21 -0.08,0 -0.08,0 0,0 0.08,0 0.08,0.08 0.18,0.08 0.17,0.09 0.43,0.26 0.76,0.43 0.09,0 0.09,0 0.09,0 0,0 0,0 -0.09,0 -0.17,-0.17 -0.43,-0.25 -0.76,-0.43 0,0 -0.09,-0.08 -0.18,-0.08 0,0 0,0 0,0 -48.21,-25.34 -23.38,-102.07 24.93,-93.34 450.52,22.1 277.03,14.13 348.7,17.73l9.76 -232.75 -1324.94 -230.96c-51.29,-8.82 -54.88,-82.29 -4.45,-96.51l142.49 -38.97c51.3,-120.4 118.6,-231.9 182.32,-364.63l-1405.43 659.38c-6.17,2.65 -13.27,4.45 -21.24,4.45 -2.65,0 -5.32,0 -7.97,-0.86 -2405.55,-479.72 2983.49,608.95 -3502.18,-700.06 -42.47,-8.82 -53.94,-64.57 -17.72,-88.55l461.13 -316.84c-1028.46,-816.02 -1011.6,-811.56 -1404.57,-974.43l-1061.35 1550.57zm3672.09 63.72c-38.96,-189.43 -31,-147.81 -48.64,-228.31 -454.03,0.86 -884.17,-23.89 -1304.55,-189.42l-162.89 111.49 1516.07 306.23zm1595.8 -8321.42c-361.97,-323.95 -704.52,68.17 -524.86,567.33 92.06,253.99 287.65,421.32 466.46,420.38 15.92,-666.4 78.79,-628.38 58.4,-987.7zm1713.46 3472.04c124.76,-299.11 129.22,-486.75 152.26,-621.27 12.42,-157.57 2.65,-139.84 14.13,-161.94 -496.51,-1.8 -1035.49,-413.36 -1367.41,-785.95 1.8,273.52 -79.64,525.71 -142.49,792.97 209.72,543.44 733.71,1146.13 922.19,1235.54 15.92,-1.8 33.65,-3.51 55.75,-7.11 168.18,-130.08 304.43,-313.33 365.58,-452.24zm-280.55 510.72c323.01,107.14 619.57,319.51 886.83,517.75 105.33,-324.81 131.87,-762.06 22.1,-1170.96 -72.53,-277.03 -81.44,-186.77 -232.75,-375.25 -42.48,-52.24 -68.17,-85.9 -137.19,-142.5 -15.08,76.99 -22.1,347.85 -168.19,697.4 -76.98,177.01 -208.01,325.67 -353.15,455.84 -5.32,7.11 -11.48,12.42 -17.73,17.72l0.08 0zm-867.39 -710.76c-78.77,-120.4 -160.21,-257.58 -230.95,-410.7 -74.34,356.66 -160.22,722.24 -172.56,1085.07l0 4.45c300.92,431.86 387.66,479.73 600.98,731.07 100.87,-131.03 349.64,-430.15 492.99,-659.38 -222.13,-100.02 -556.71,-547.89 -690.38,-750.5l-0.09 0zm2591.55 -3320.64c-92.91,-11.48 -185.83,-24.75 -277.03,-41.62 -67.22,-299.12 -171.69,-589.42 -308.88,-861.14 69.02,271.71 80.58,559.36 31.85,837.24 -216.82,-11.48 -433.65,-17.72 -652.27,-19.43 41.62,-210.67 37.16,-431.01 -9.76,-642.52 15.93,218.63 -33.65,441.62 -138.04,634.55 -25.69,-23.89 -57.55,-37.16 -90.25,-41.62 46.93,-297.4 37.16,-604.49 -31.86,-898.3 35.37,234.55 -61.05,467.3 -155.76,685.93 -45.99,106.19 -78.79,133.68 -183.17,133.68 -284.14,1.8 -567.33,-17.73 -847.01,-62.86 67.22,-107.98 136.33,-218.63 205.35,-327.46 -159.28,106.19 -285,253.14 -383.22,416.87 -80.58,758.46 100.02,1397.55 184.97,1968.39 333.72,416.87 931.96,892.99 1446.19,855.82 320.36,-28.34 585.06,-227.44 762.06,-510.63 335.43,-543.44 492.99,-1304.56 446.92,-2126.82l-0.08 -0.08zm18.59 3262.24c-2.65,-1.8 -7.11,-2.65 -17.73,-5.3 -112.44,-38.97 -240.72,-41.62 -368.13,-47.79 -20.38,-0.86 -378.85,-20.37 -404.45,-22.08 158.42,370.79 176.15,1003.63 5.3,1458.6 -11.48,31 -48.64,41.62 -75.18,22.1 -300.06,-223.93 -605.35,-454.03 -965.61,-558.42 -140.71,228.31 -458.49,611.6 -547.89,731.92 -19.43,25.7 -69.02,27.41 -84.95,-10.62 -45.13,-66.36 -286.79,-300.06 -553.2,-656.72 19.44,395.63 143.35,785.95 358.47,1118.72 -119.46,14.13 -218.63,-88.54 -289.44,-186.77 -365.58,-505.42 -559.36,-1129.34 -555.77,-1751.56 -12.42,-32.71 -27.4,-100.02 -28.34,-143.35 -381.5,131.02 -909.87,340.73 -1104.51,433.65 -5.32,2.65 -10.62,5.3 -14.14,6.16 -413.35,130.09 -716.92,494.71 -1021.36,805.4 -947.88,980.59 -1155.03,1279.8 -1409.02,1599.31 -294.76,369.94 -279.68,398.28 -348.7,511.58 -8.82,15.07 -20.38,33.65 -28.35,49.58 515.1,240.72 261.96,22.1 1589.54,1078.9 6.17,5.32 26.55,22.1 34.51,23.89 0.86,1.81 10.62,-1.8 16.79,-3.51 163.73,-43.32 281.48,-92.91 420.38,-177.86 128.36,-78.79 278.82,-166.38 425.68,-255.79 29.21,-17.73 69.02,-3.51 76.13,43.32 10.62,22.1 24.75,192.94 81.44,420.39 46.93,184.11 124.77,553.19 143.35,646.1l1372.72 277.03 376.19 68.17c1563,-723.09 1501.94,-720.44 1541.76,-711.62 563.82,-989.51 1514.36,-1570.97 2435.69,-1757.73 -160.22,-843.5 -407.1,-1157.69 -669.05,-1840.02 -120.41,-307.09 -62.86,-627.54 -145.16,-930.17 -39.82,-129.22 -169.89,-201.75 -246.88,-235.41l-0.08 -0.08zm1310.8 923.05c-167.24,-347.85 -366.43,-583.25 -610.66,-719.58 -113.29,-64.56 -286.78,-118.6 -457.54,-158.42 217.69,226.58 99.17,724.89 240.72,1085.07 147.8,385.87 379.69,837.24 477.07,1124.04 137.19,383.21 173.49,623.93 198.24,733.71 312.4,-57.55 620.41,-69.87 861.14,-50.44 99.17,-6.16 198.24,-7.11 294.76,-4.45 -224.8,-389.47 -176.16,-375.26 -1003.64,-2009.93l-0.08 0zm-844.36 2565.78c139.84,143.35 252.28,305.37 336.29,484.08 822.18,-439.9 1787.79,-459.34 2548.05,-129.22 1.8,0.86 3.51,1.8 5.3,2.65 89.4,-179.66 212.37,-346.04 358.47,-484.08 -985.05,-457.55 -2153.36,-472.62 -3248.19,126.57l0.08 0zm2582.47 513.29c-30.05,40.67 -57.55,81.44 -81.44,123.92l638.16 818.66 446.06 -138.04c-262.9,-334.57 -603.63,-615.11 -1002.78,-804.53zm1111.62 -397.34c-171.69,131.87 -286.78,278.82 -373.45,456.68 698.26,427.49 1226.71,1165.56 1371.87,2057.7l593.87 0c-123.06,-978.88 -681.48,-1917.01 -1592.19,-2514.48l-0.09 0.09zm4199.59 -15.08l4.46 -20.37 -3114.52 968.26c33.65,49.58 62.86,100.88 94.72,152.26 206.2,336.29 339.88,667.35 421.32,988.65l1317.83 -445.22 1332.03 -1558.54c-24.75,-29.21 -63.71,-45.99 -55.74,-84.95l-0.09 -0.09zm-2571.16 2183.42c27.4,114.14 47.78,228.29 61.91,346.04l145.14 0c131.03,-143.35 317.71,-221.28 509.78,-208.86l454.03 -531.01 -1170.87 393.83zm3053.54 -1108.11c0.08,0 0.18,0.08 0.26,0.17 -0.08,-0.08 -0.08,-0.17 -0.18,-0.25l-0.08 0.08zm0.34 0.17c52.33,26.21 322.67,-178.37 659.9,-651.58 295.61,-414.22 356.67,-643.46 318.65,-671.72l-837.25 -764.71 -122.11 264.61c28.43,25.85 693.9,634.38 729,666.14 0.08,0.09 0.18,0.18 0.26,0.26 0.25,0.17 0.43,0.34 0.51,0.43 0.86,0.77 0.86,0.77 -0.17,-0.17 -0.09,-0.09 -0.18,-0.18 -0.34,-0.26 -0.26,-0.26 -0.51,-0.51 -0.86,-0.86 0.17,0.17 0.43,0.43 0.6,0.6 0.18,0.18 0.43,0.34 0.61,0.52 0.08,0.08 0.08,0.08 0.17,0.17 44.36,43.42 -17.81,113.38 -65.94,73.04 -19.95,-16.44 -959.27,-798.62 -978.88,-815.15l-82.29 276.17c922.19,818.67 908.92,804.53 901.9,798.29 47.78,41.61 -11.48,115.95 -62.86,76.12 -58.4,-46.93 -800.08,-643.45 -780.64,-627.53l-61.05 292.95c20.21,19.36 691.66,665.47 658.27,633.53 44.61,43.42 -17.73,114.14 -66.19,72.78 -36.57,-30.74 -502.68,-430.82 -531.96,-456.6l-72.54 335.35c15.85,20.04 373.28,471.85 393.24,497.62zm-113.64 14.9l-59.26 -75.18 -115.95 135.39 175.21 -60.21zm-2624.17 2293.2c234.55,210.66 590.36,178.81 788.61,-52.23 115.95,-137.19 159.28,-321.3 114.15,-493.86 -9.76,-38.02 -93.85,76.99 1599.31,-1901.08 -248.69,-324.81 -267.26,-315.99 -258.44,-355.81l76.12 -353.15c-1967.44,2287.97 -1853.3,2199.35 -1902.88,2194.03 -242.52,-25.69 -465.51,118.6 -557.56,329.27 -103.53,239 -13.27,513.29 140.7,632.83zm-147.81 -13.27c-165.53,-212.37 -179.66,-518.69 -39.82,-742.53l-3701.37 -0.08c-203.56,0 -368.15,167.24 -368.15,372.59 0,199.1 165.53,370.8 368.15,370.8l3591.67 0.08 149.51 -0.86zm-1698.46 2545.3c1.8,-1.8 4.45,-2.65 6.16,-4.45 816.96,-571.69 1356.79,-1459.47 1487.82,-2441.78l-592.93 0c-76.99,486.75 -285.85,985.05 -632.84,1409.03 -196.45,239.86 -369.94,385.87 -583.25,544.29 68.17,184.97 176.15,354.01 315.05,492.99l0 -0.08zm377.9 -2446.31l-1751.48 0c-74.33,102.68 -167.24,185.83 -273.51,244.23 -169.05,1359.44 -133.68,1309.01 -178.81,1334.69l385.87 639.86c877.07,-325.67 1619.61,-1113.42 1817.93,-2218.78zm-2640.87 3087.03c65.51,-6.16 903.61,110.64 1892.26,-407.1 -132.73,-147.8 -241.66,-318.64 -319.5,-501.81 -562.02,299.12 -1405.44,440.76 -2096.67,224.79 -4.46,0 -8.82,-0.86 -12.42,-1.8 -202.7,-53.94 -320.36,-103.53 -438.96,-152.26 -97.37,178.8 -223.07,341.59 -372.59,476.13 51.29,25.69 102.68,48.64 156.62,71.67 375.26,151.32 642.52,250.48 1191.26,290.3l0 0.08z"/>
   <path class="fil0" d="M17494.44 8138.38c13.27,23.89 4.45,53.94 -19.44,67.23 -23.04,13.27 -53.1,5.3 -67.23,-19.44 -526.56,-955.85 -1473.59,-1682.46 -2533.06,-1942.7 -62.86,-15.07 -39.83,-111.49 23.89,-95.57 1085.92,266.41 2056.85,1010.74 2595.83,1990.49z"/>
   <path class="fil0" d="M15942.83 7423.33c-17.73,21.24 -48.64,23.89 -69.02,6.17 -648.77,-540.78 -1421.36,-945.24 -2235.66,-1170.02 -26.54,-7.11 -41.62,-34.51 -34.51,-60.2 7.11,-26.55 34.51,-41.62 60.2,-34.51 827.48,228.29 1613.43,639.86 2272.74,1189.54 21.24,16.79 23.89,47.79 6.16,69.02l0.09 0z"/>
   <path class="fil0" d="M16951.78 11943.28c23.89,3.51 49.58,20.38 51.29,47.78 40.67,1190.41 -449.58,2391.51 -1311.66,3212.82 -9.76,8.82 -22.1,13.27 -33.65,13.27 -44.27,0 -66.37,-53.94 -33.65,-84.95 842.56,-801.88 1321.42,-1975.41 1281.51,-3137.64 -1.8,-27.4 19.44,-49.58 45.99,-51.29l0.18 0z"/>
   <path class="fil0" d="M17456.33 11796.42c25.7,-3.51 51.3,15.08 55.75,41.62 76.13,552.26 3.51,1116.92 -209.72,1632.96 -24.75,60.2 -115.95,22.1 -91.2,-38.02 207.07,-499.16 277.03,-1046.11 203.56,-1581.59 -3.52,-26.54 15.07,-51.29 41.61,-54.88l0 -0.09z"/>
  </g>
 </g>
</svg>
